# xmcd
#
# Track frame offsets:
#	150
#	13938
#	24754
#	36607
#	53722
#	64491
#	80024
#
# Disc length: 1255 seconds
#
# Revision: 1
# Processed by: cddbd v1.5.2PL0 Copyright (c) Steve Scherf et al.
# Submitted via: audiograbber 1.83.01
#
DISCID=5b04e507
DTITLE=Various Artist - New Country Vol. 30
DYEAR=2005
DGENRE=Country
TTITLE0=Flint Hill Band - Tip toein'
TTITLE1=Johnny Anthony - Runaway little tears
TTITLE2=Floyd Flowers - My own damn man
TTITLE3=Cole Porter - I can see Arkansas
TTITLE4=Louie Allen - Honky tonk lake
TTITLE5=Miko Marks - Freeway bound
TTITLE6=Doug Alan - For a lifetime
EXTD=
EXTT0=
EXTT1=
EXTT2=
EXTT3=
EXTT4=
EXTT5=
EXTT6=
PLAYORDER=
